# xmcd
#
# Track frame offsets:
#	187
#	19940
#	42815
#	64390
#	90005
#	112950
#	139202
#	160225
#	175160
#	194630
#	217077
#	239500
#
# Disc length: 3495 seconds
#
# Revision: 1
# Processed by: cddbd v1.5.1PL0 Copyright (c) Steve Scherf et al.
# Submitted via: CDex 1.50Beta5
#
DISCID=a80da50c
DTITLE=HUSH - イフ・ユー・スマイル
DYEAR=1998
DGENRE=Rock
TTITLE0=トーク・トゥ・ミー
TTITLE1=ベイブ
TTITLE2=キープ・オン・ビリービン
TTITLE3=ピース・オブ・ジ・アクション
TTITLE4=レット・イット・レイン
TTITLE5=ジス・サイド・オブ・ラブ
TTITLE6=ヘビン・エイント
TTITLE7=ビッグ・タイム
TTITLE8=サムタイムス
TTITLE9=ギャグド・アンド・バウンド
TTITLE10=イフ
TTITLE11=ジス・サイド・オブ・ラブ
EXTD=
EXTT0=
EXTT1=
EXTT2=
EXTT3=
EXTT4=
EXTT5=
EXTT6=
EXTT7=
EXTT8=
EXTT9=
EXTT10=
EXTT11=
PLAYORDER=
